<svg xmlns="http://www.w3.org/2000/svg" viewBox="0 0 360 301" role="img" aria-label="Logo Projeto Hermes">
  <defs>
    <filter id="glow" x="-20%" y="-20%" width="140%" height="140%">
      <feGaussianBlur stdDeviation="1.2" result="blur"/>
      <feMerge>
        <feMergeNode in="blur"/>
        <feMergeNode in="SourceGraphic"/>
      </feMerge>
    </filter>
  </defs>
  <g fill="none" stroke="#f5f7fb" stroke-width="5" stroke-linecap="round" stroke-linejoin="round" filter="url(#glow)">
    <path d="M73 246C38 203 34 137 69 88C106 36 168 20 222 38"/>
    <path d="M101 273C143 237 208 229 268 256"/>
    <path d="M273 61c-18 35-57 47-103 47h-37c15-34 37-47 70-47h70z"/>
    <path d="M252 101c-16 29-47 40-91 40h-51c14-29 38-40 76-40h66z"/>
    <path d="M226 139c-15 26-44 35-86 35H86c12-25 34-35 68-35h72z"/>
    <path d="M106 73c-46 9-76 42-90 89h63l-8 31c17 6 35 7 53 1l31 17c-18-30-42-45-74-43"/>
    <path d="M112 77c40-2 84-2 131-2"/>
    <path d="M114 77c-20 39-22 75-35 92"/>
    <path d="M91 196c-9 10-17 21-24 35c16 7 34 7 55 2l8 28c36-20 75-24 117-15"/>
    <path d="M247 128c19 42 47 67 91 66"/>
    <path d="M268 93c34 35 51 78 50 128"/>
    <path d="M213 168c14 45 43 74 88 82"/>
    <path d="M189 168c18 53 53 86 103 96"/>
    <path d="M166 168c18 62 57 99 115 111"/>
    <path d="M71 190c-8 11-10 20-4 28"/>
    <path d="M66 222c-9 10-9 19 0 27c14 9 31 8 51 3"/>
    <path d="M45 171l56-58"/>
    <path d="M105 74c-28 18-46 43-56 75"/>
  </g>
</svg>
